<?xml version="1.0" standalone="no"?>
<!DOCTYPE svg PUBLIC "-//W3C//DTD SVG 20010904//EN"
 "http://www.w3.org/TR/2001/REC-SVG-20010904/DTD/svg10.dtd">
<svg version="1.0" xmlns="http://www.w3.org/2000/svg"
 width="200.000000pt" height="200.000000pt" viewBox="0 0 200.000000 200.000000"
 preserveAspectRatio="xMidYMid meet">
<metadata>
Created by potrace 1.11, written by Peter Selinger 2001-2013
</metadata>
<g transform="translate(0.000000,200.000000) scale(0.100000,-0.100000)"
fill="#000000" stroke="none">
<path d="M1134 1781 c-45 -21 -84 -74 -134 -185 -38 -82 -59 -187 -66 -316 -6
-127 -12 -168 -30 -206 -14 -29 -14 -35 0 -62 53 -102 68 -411 28 -564 -22
-81 -51 -145 -77 -172 -10 -9 -33 -16 -55 -16 -34 0 -43 5 -64 37 l-26 37 27
28 c35 36 34 84 -2 116 -66 56 -145 -3 -132 -99 21 -158 209 -234 324 -132 33
29 100 160 116 228 20 79 27 137 32 270 2 66 11 131 20 159 16 46 16 53 0 102
-32 102 -41 160 -44 269 -3 126 11 228 45 336 28 90 61 129 109 129 52 0 111
-81 71 -96 -16 -6 -35 -50 -34 -77 2 -30 44 -67 77 -67 94 0 116 131 38 226
-57 69 -145 91 -223 55z"/>
</g>
</svg>
